<?xml version="1.0" encoding="utf-8"?>
<!-- Generator: Adobe Illustrator 16.0.0, SVG Export Plug-In . SVG Version: 6.00 Build 0)  -->
<!DOCTYPE svg PUBLIC "-//W3C//DTD SVG 1.1//EN" "http://www.w3.org/Graphics/SVG/1.1/DTD/svg11.dtd">
<svg version="1.1" id="Layer_1" xmlns="http://www.w3.org/2000/svg" xmlns:xlink="http://www.w3.org/1999/xlink" x="0px" y="0px"
	 width="612px" height="792px" viewBox="0 0 612 792" enable-background="new 0 0 612 792" xml:space="preserve">
<path fill="#FFFFFF" d="M289.746,505.585c-85.513-9.574-144.726-92.316-124.238-177.482L289.746,505.585z M306,540.5
	c-108.966,0-204.098-58.12-255-144.5c23.115-39.224,55.356-72.613,93.866-97.387l-29.263-41.802
	C71.188,285.749,33.916,324.537,7.062,370.108c-9.416,15.978-9.416,35.807,0,51.786C66.942,523.507,178.649,591.5,306,591.5
	c14.079,0.001,28.146-0.839,42.126-2.515l-34.022-48.604C311.403,540.458,308.701,540.497,306,540.5z M604.938,421.893
	c-35.309,59.918-88.635,108.101-152.526,137.585l51.124,73.036c4.038,5.769,2.635,13.719-3.134,17.757l-22.033,15.424
	c-5.768,4.038-13.719,2.635-17.756-3.134L108.464,159.486c-4.039-5.768-2.635-13.719,3.133-17.756l22.033-15.424
	c5.768-4.039,13.719-2.635,17.756,3.133l58.996,84.283C240.775,205.114,272.858,200.5,306,200.5
	c127.352,0,239.059,67.994,298.938,169.608C614.354,386.085,614.354,405.914,604.938,421.893L604.938,421.893z M561,396
	c-46.917-79.616-131.407-135.225-229.672-143.445C320.92,263.271,314.5,277.882,314.5,294c0,32.861,26.639,59.5,59.5,59.5
	s59.5-26.639,59.5-59.5l-0.001-0.044c32.546,60.856,17.785,138.401-39.236,182.452l28.363,40.518
	C480.915,492.21,529.452,449.535,561,396z"/>
</svg>
