<?xml version="1.0" encoding="utf-8"?>
<!-- Generator: Adobe Illustrator 22.1.0, SVG Export Plug-In . SVG Version: 6.00 Build 0)  -->
<svg version="1.1" id="Layer_1" xmlns="http://www.w3.org/2000/svg" xmlns:xlink="http://www.w3.org/1999/xlink" x="0px" y="0px"
	 viewBox="0 0 100 100" style="enable-background:new 0 0 100 100;" xml:space="preserve">
<style type="text/css">
	.st0{fill:#C31F32;}
</style>
<path class="st0" d="M53.5,6.2C29.4,6.2,9.7,25.8,9.7,50H2.6l12.6,15.8L27.8,50h-9.1c0-19.2,15.6-34.8,34.8-34.8
	c19.2,0,34.8,15.6,34.8,34.8S72.7,84.8,53.5,84.8c-9.4,0-18.2-3.7-24.8-10.3l-6.4,6.3c8.3,8.4,19.4,13,31.2,13
	c24.2,0,43.8-19.7,43.8-43.8S77.7,6.2,53.5,6.2z M49,27v25.2l14.4,11.5l5.6-7l-11-8.8V27H49z"/>
</svg>
