<?xml version="1.0" encoding="utf-8"?>
<!-- Generator: Adobe Illustrator 22.1.0, SVG Export Plug-In . SVG Version: 6.00 Build 0)  -->
<svg version="1.1" id="Layer_1" xmlns="http://www.w3.org/2000/svg" xmlns:xlink="http://www.w3.org/1999/xlink" x="0px" y="0px"
	 viewBox="0 0 41 24" style="enable-background:new 0 0 41 24;" xml:space="preserve">
<style type="text/css">
	.st0{fill:#C31F32;}
	.st1{fill:#AF1B30;}
</style>
<g>
	<path class="st0" d="M38,6.2l1.6-3.8l-0.3-0.8c-0.4-0.9-1.5-1.1-2.2-0.3c-1.1,1.3-2.5,2.9-3,3c-0.8,0.1-1.8,0.5-1.8,0.5
		S30.4,7,29.2,7c-1.3,0-3.7,0-4.5,0.5c0,0,1.8,2.8,4.5,3.1c0,0-1.9,0.1-2.5,1.3c-0.6,1.2-1.3,11.6-5.5,11.7c0,0,6.7,1.5,8.9-1.7
		L30,23.4c0,0,6.4,0.5,7.9-4.8l0.5,1.4c0,0,1.1-2,0.7-3.2l1.1,0.6c0,0,0.2-0.7-1-2.5c-1.2-1.8-1.6-4.1-0.6-5.6
		c1.1-1.6,3.5-3.6,2.1-5.1L38,6.2z"/>
	<path class="st1" d="M38.1,2.5c-1-0.2-0.3-1.1-0.3-1.1s0,0.8,0.6,0.8c0.4,0,0.6-0.4,0.8-0.8c-0.4-0.9-1.5-1-2.1-0.3
		c-1.1,1.3-2.5,2.9-3,3c-0.8,0.1-1.8,0.5-1.8,0.5S30.4,7,29.2,7c-1.3,0-3.7,0-4.5,0.5c0,0,1.8,2.8,4.5,3.1c0,0-1.9,0.1-2.5,1.3
		c-0.6,1.2-1.3,10.8-5,11.6c8.6-1.2,6-9.7,8.1-10.5c2.1-0.8,2.7-2.8,2.7-2.8l0.2,4c0.8-0.6,1.2-2.5,1.5-5.4
		C34.3,6,38.1,2.5,38.1,2.5z"/>
	<path class="st0" d="M33.1,5.2c0,0-1.1,0.9-1.4,1.5C31.7,6.6,33.1,7.3,33.1,5.2z"/>
	<path class="st1" d="M40.6,4.2l-0.4,0.3c0.1,0.5,0.2,1.4-0.6,2.3c-1.2,1.4-3,2.9-2.4,5.5l0.4-0.5c0,0,0.3,2.9,1.2,4L38,15.4
		c0,0,0.3,2.5,0.3,3.1l-0.5-1.8c0,0-0.2,5.4-7.7,6.7c0,0,6.4,0.5,7.9-4.8l0.5,1.4c0,0,1.1-2,0.7-3.2l1.1,0.6c0,0,0.2-0.7-1-2.5
		c-1.2-1.8-1.6-4.1-0.6-5.6C39.6,7.7,42,5.6,40.6,4.2z"/>
</g>
<g>
	<path class="st0" d="M3.8,6.2L2.3,2.3l0.3-0.8C3,0.6,4.2,0.4,4.8,1.1c1.1,1.3,2.5,2.9,3,3c0.8,0.1,1.8,0.5,1.8,0.5S11.4,7,12.7,7
		c1.3,0,3.7,0,4.5,0.5c0,0-1.8,2.8-4.5,3.1c0,0,1.9,0.1,2.5,1.3c0.6,1.2,1.3,11.6,5.5,11.7c0,0-6.7,1.5-8.9-1.7l0.2,1.5
		c0,0-6.4,0.5-7.9-4.8L3.5,20c0,0-1.1-2-0.7-3.2l-1.1,0.6c0,0-0.2-0.7,1-2.5c1.2-1.8,1.6-4.1,0.6-5.6C2.3,7.7-0.1,5.6,1.3,4.2
		L3.8,6.2z"/>
	<path class="st1" d="M3.7,2.5C4.7,2.2,4,1.4,4,1.4s0,0.8-0.6,0.8C3,2.2,2.8,1.8,2.7,1.4c0.4-0.9,1.5-1,2.1-0.3c1.1,1.3,2.5,2.9,3,3
		c0.8,0.1,1.8,0.5,1.8,0.5S11.4,7,12.7,7c1.3,0,3.7,0,4.5,0.5c0,0-1.8,2.8-4.5,3.1c0,0,1.9,0.1,2.5,1.3c0.6,1.2,1.3,10.8,5,11.6
		c-8.6-1.2-6-9.7-8.1-10.5c-2.1-0.8-2.7-2.8-2.7-2.8l-0.2,4C8.4,13.6,8,11.7,7.8,8.9C7.5,6,3.7,2.5,3.7,2.5z"/>
	<path class="st0" d="M8.7,5.2c0,0,1.1,0.9,1.4,1.5C10.2,6.6,8.7,7.3,8.7,5.2z"/>
	<path class="st1" d="M1.3,4.2l0.4,0.3C1.6,5,1.5,5.9,2.3,6.8c1.2,1.4,3,2.9,2.4,5.5l-0.4-0.5c0,0-0.3,2.9-1.2,4l0.7-0.4
		c0,0-0.3,2.5-0.3,3.1l0.5-1.8c0,0,0.2,5.4,7.7,6.7c0,0-6.4,0.5-7.9-4.8L3.5,20c0,0-1.1-2-0.7-3.2l-1.1,0.6c0,0-0.2-0.7,1-2.5
		c1.2-1.8,1.6-4.1,0.6-5.6C2.3,7.7-0.1,5.6,1.3,4.2z"/>
</g>
</svg>
